name C:\Users\u0150099\Documents\master_thesis\3dpredictsim\Results\debug\Fal_s1_mtjc4_sc_cspx10_oy2_MTc2_MTPm_k1_d01_MTJm_nl_MG_exp5_table_d01_PF_Gefen2002_ls146_ig21.mot
datacolumns 128
datarows 4
range 1.64841804 1.68138640
endheader
time	pelvis_tilt	pelvis_list	pelvis_rotation	pelvis_tx	pelvis_ty	pelvis_tz	hip_flexion_l	hip_adduction_l	hip_rotation_l	hip_flexion_r	hip_adduction_r	hip_rotation_r	knee_angle_l	knee_angle_r	ankle_angle_l	ankle_angle_r	subtalar_angle_l	subtalar_angle_r	mtj_angle_l	mtj_angle_r	mtp_angle_l	mtp_angle_r	lumbar_extension	lumbar_bending	lumbar_rotation	arm_flex_l	arm_add_l	arm_rot_l	arm_flex_r	arm_add_r	arm_rot_r	elbow_flex_l	elbow_flex_r	pro_sup_l	pro_sup_r	glut_med1_l/activation	glut_med2_l/activation	glut_med3_l/activation	glut_min1_l/activation	glut_min2_l/activation	glut_min3_l/activation	semimem_l/activation	semiten_l/activation	bifemlh_l/activation	bifemsh_l/activation	sar_l/activation	add_long_l/activation	add_brev_l/activation	add_mag1_l/activation	add_mag2_l/activation	add_mag3_l/activation	tfl_l/activation	pect_l/activation	grac_l/activation	glut_max1_l/activation	glut_max2_l/activation	glut_max3_l/activation	iliacus_l/activation	psoas_l/activation	quad_fem_l/activation	gem_l/activation	peri_l/activation	rect_fem_l/activation	vas_med_l/activation	vas_int_l/activation	vas_lat_l/activation	med_gas_l/activation	lat_gas_l/activation	soleus_l/activation	tib_post_l/activation	flex_dig_l/activation	flex_hal_l/activation	tib_ant_l/activation	per_brev_l/activation	per_long_l/activation	per_tert_l/activation	ext_dig_l/activation	ext_hal_l/activation	ercspn_l/activation	intobl_l/activation	extobl_l/activation	glut_med1_r/activation	glut_med2_r/activation	glut_med3_r/activation	glut_min1_r/activation	glut_min2_r/activation	glut_min3_r/activation	semimem_r/activation	semiten_r/activation	bifemlh_r/activation	bifemsh_r/activation	sar_r/activation	add_long_r/activation	add_brev_r/activation	add_mag1_r/activation	add_mag2_r/activation	add_mag3_r/activation	tfl_r/activation	pect_r/activation	grac_r/activation	glut_max1_r/activation	glut_max2_r/activation	glut_max3_r/activation	iliacus_r/activation	psoas_r/activation	quad_fem_r/activation	gem_r/activation	peri_r/activation	rect_fem_r/activation	vas_med_r/activation	vas_int_r/activation	vas_lat_r/activation	med_gas_r/activation	lat_gas_r/activation	soleus_r/activation	tib_post_r/activation	flex_dig_r/activation	flex_hal_r/activation	tib_ant_r/activation	per_brev_r/activation	per_long_r/activation	per_tert_r/activation	ext_dig_r/activation	ext_hal_r/activation	ercspn_r/activation	intobl_r/activation	extobl_r/activation	
          1.64841804	         -2.91625416	          1.85542799	         -4.47279796	          2.19239600	          0.90685727	          0.00606288	         30.15384860	          2.02403722	         -8.24738188	        -10.83598883	          1.35758917	         -1.16771508	        -13.64451883	        -21.74280498	          7.74757622	         -2.29965955	          4.40155402	         -3.22022303	          4.26467213	          6.95576007	         11.87118405	         28.55253295	         -4.51642135	         -0.74143900	          1.21919743	         -2.47354318	        -13.46887181	          9.11470200	          3.98313215	        -13.61580793	         19.18293686	         23.21553259	         36.74952655	         86.51662706	         86.51662706	          0.05007450	          0.05000120	          0.05915755	          0.05000041	          0.05000067	          0.05019004	          0.24007662	          0.06999915	          0.10761765	          0.11577230	          0.10020507	          0.05000022	          0.05745559	          0.05665006	          0.05000100	          0.17034436	          0.05000032	          0.05000174	          0.10168954	          0.05017094	          0.05145702	          0.22088661	          0.10815851	          0.11395353	          0.15886568	          0.06290444	          0.06925796	          0.05000001	          0.05000003	          0.05000003	          0.05000003	          0.11592653	          0.09798073	          0.05953610	          0.23985162	          0.06999304	          0.06999299	          0.53400105	          0.09825005	          0.22471446	          0.36095899	          0.67602476	          0.48972443	          0.05000001	          0.10588791	          0.09069923	          0.23100276	          0.05000002	          0.05000001	          0.49776204	          0.13732393	          0.05000006	          0.05000050	          0.05000005	          0.05000004	          0.05000004	          0.05000023	          0.05915783	          0.05000135	          0.05000023	          0.05000115	          0.09710177	          0.47009605	          0.05000266	          0.05000008	          0.05000041	          0.05000026	          0.05000021	          0.16449862	          0.38032405	          0.05000001	          0.05000003	          0.05000002	          0.60251591	          0.16503497	          0.16498024	          0.13274677	          0.36360888	          0.61871526	          0.09957652	          0.74861769	          0.76057790	          0.73894838	          0.05000000	          0.24729624	          0.38078487	          0.05000003	          0.05000002	          0.08281283	          0.05000002	          0.05000005	          0.05000011	
          1.65940750	         -2.91724246	          1.91313808	         -4.86329601	          2.20981987	          0.90494208	          0.00560284	         30.27546627	          2.16689059	         -8.21812971	        -12.16761917	          0.85598475	         -1.60597283	        -14.38916530	        -21.03159871	          7.27446761	         -3.51298793	          4.19440268	         -2.22069646	          4.32156017	          6.65536110	         12.49340112	         30.27283584	         -4.36603456	         -0.82906949	          1.36870521	         -3.27474856	        -13.45303907	          8.42456994	          3.76697091	        -13.57815591	         19.31246937	         22.56767418	         37.85190028	         86.51662706	         86.51662706	          0.05688185	          0.05000543	          0.05000008	          0.05915783	          0.05915779	          0.05000101	          0.20291179	          0.05916301	          0.09095801	          0.09785029	          0.11592601	          0.06133966	          0.06793580	          0.05000015	          0.05000024	          0.19324828	          0.05000015	          0.05001697	          0.08594765	          0.05000017	          0.05000008	          0.26871694	          0.11592660	          0.11592675	          0.22531086	          0.19199411	          0.08194395	          0.05000000	          0.05000000	          0.05000000	          0.05000000	          0.09798064	          0.08281292	          0.06401487	          0.22282622	          0.05915786	          0.05915786	          0.55740703	          0.16436617	          0.28117506	          0.30508110	          0.75887309	          0.53066266	          0.05000002	          0.08994108	          0.08281283	          0.19524261	          0.05000002	          0.05000000	          0.42070649	          0.11606568	          0.05000006	          0.05000061	          0.05000006	          0.05000004	          0.05000003	          0.05000014	          0.05000006	          0.05000009	          0.05000006	          0.05000029	          0.09595365	          0.40466962	          0.05000013	          0.05000004	          0.05000034	          0.05000022	          0.05000015	          0.13903358	          0.39718339	          0.05000000	          0.05000002	          0.05000002	          0.54735963	          0.15156517	          0.15054996	          0.12204186	          0.34265081	          0.57738954	          0.11695119	          0.66063389	          0.70653103	          0.62455626	          0.05000000	          0.20901379	          0.32183784	          0.05000001	          0.05000000	          0.06999308	          0.05000000	          0.05000001	          0.06691209	
          1.67039695	         -2.91600080	          1.97727287	         -5.23814931	          2.22753693	          0.90291637	          0.00508910	         30.42990108	          2.28292126	         -8.18689380	        -13.43732526	          0.32139383	         -2.05303180	        -15.92650498	        -20.42840237	          6.44629200	         -4.85534847	          3.92078134	         -1.12646334	          4.55074256	          6.31272024	         13.12802132	         32.04803414	         -4.20426222	         -0.92144003	          1.51522848	         -4.12450354	        -13.44971358	          7.91498891	          3.46948128	        -13.54717436	         19.36765999	         21.99024374	         38.99800166	         86.51662706	         86.51662706	          0.05000000	          0.05000001	          0.05602739	          0.05000001	          0.05000001	          0.05000003	          0.17150023	          0.05000434	          0.07687734	          0.08270267	          0.09798092	          0.13783572	          0.12783330	          0.14820459	          0.05915792	          0.26102798	          0.06999337	          0.08281129	          0.07264263	          0.05000011	          0.05000015	          0.36207148	          0.09798073	          0.09798085	          0.52376798	          0.16227275	          0.07197761	          0.09798065	          0.06999314	          0.21933125	          0.15631156	          0.08281284	          0.06999316	          0.06902952	          0.21849902	          0.05000000	          0.05000000	          0.70327730	          0.13892163	          0.23764803	          0.59892254	          0.77534391	          0.60153974	          0.05000000	          0.07601784	          0.06999308	          0.16501827	          0.05000035	          0.05000287	          0.35557944	          0.09809827	          0.05915767	          0.05000104	          0.05000012	          0.05000020	          0.05000009	          0.05000049	          0.11253839	          0.21259835	          0.28225065	          0.08503779	          0.09956751	          0.34202529	          0.05001913	          0.05000070	          0.05000224	          0.05000157	          0.05000296	          0.11751063	          0.42894611	          0.05337404	          0.08818482	          0.05915824	          0.51261798	          0.16476707	          0.16308423	          0.13612899	          0.33566850	          0.55928176	          0.10692130	          0.55836512	          0.59715722	          0.52787244	          0.14819040	          0.17665763	          0.27201605	          0.05000001	          0.05000000	          0.05915788	          0.05000006	          0.06999306	          0.06999300	
          1.68138640	         -2.91401440	          2.05615851	         -5.59633142	          2.24551368	          0.90085216	          0.00454903	         30.45866825	          2.36475926	         -8.07827994	        -14.62470225	         -0.24123368	         -2.45341163	        -17.84246126	        -19.96773090	          5.75988941	         -6.28568878	          3.59589101	          0.03302201	          4.92490057	          5.95450649	         13.68776669	         33.63395323	         -4.03112688	         -1.02747912	          1.65526274	         -5.00730562	        -13.45656558	          7.57027309	          3.09379371	        -13.52807876	         19.38675401	         21.45462745	         40.19788462	         86.51662706	         86.51662706	          0.31415776	          0.32609183	          0.36306693	          0.42224112	          0.33703848	          0.38030855	          0.14606467	          0.13477232	          0.10960962	          0.08281286	          0.08281312	          0.11649821	          0.10804422	          0.12526194	          0.05000010	          0.30591701	          0.05915814	          0.06999207	          0.06139736	          0.05000003	          0.13432398	          0.42423301	          0.08281292	          0.08281302	          0.44268659	          0.13715231	          0.15832441	          0.08281285	          0.05915792	          0.18537789	          0.13211390	          0.06999308	          0.05915794	          0.05834348	          0.29446007	          0.18545267	          0.09798028	          0.72631476	          0.11741601	          0.27604832	          0.74446058	          0.86894031	          0.50841899	          0.07591182	          0.15412968	          0.05915787	          0.13947279	          0.05000003	          0.05000002	          0.30053432	          0.08291229	          0.05000010	          0.05000028	          0.05000005	          0.05000006	          0.05000005	          0.05000186	          0.17073657	          0.38114188	          0.23855756	          0.07295718	          0.11375914	          0.34865669	          0.05915799	          0.05000045	          0.05000080	          0.05000053	          0.05000069	          0.09931953	          0.58015268	          0.05003814	          0.07453348	          0.05000033	          0.43326266	          0.13926058	          0.13783822	          0.11505576	          0.33384252	          0.53455537	          0.10223279	          0.47192795	          0.50471489	          0.44615567	          0.36442253	          0.27065583	          0.22990688	          0.05000001	          0.05000002	          0.05000002	          0.06585296	          0.05915786	          0.05915782	
